<?xml version="1.0" encoding="UTF-8" standalone="no"?>
<svg width="46px" height="58px" viewBox="0 0 46 58" version="1.1" xmlns="http://www.w3.org/2000/svg" xmlns:xlink="http://www.w3.org/1999/xlink">
    <!-- Generator: sketchtool 39.1 (31720) - http://www.bohemiancoding.com/sketch -->
    <title>2A944BB8-650C-4B62-9E49-CD400C7A5D1F</title>
    <desc>Created with sketchtool.</desc>
    <defs>
        <path d="M17.5860205,7.1685532 C18.1429911,6.84992787 18.7898613,6.66753247 19.4798762,6.66753247 C21.569325,6.66753247 23.2631579,8.34001058 23.2631579,10.4031169 C23.2631579,10.4454271 23.2624455,10.4875731 23.2610319,10.5295437 C24.8163623,10.7926883 26,12.1305095 26,13.7412987 C26,15.3513539 24.8174408,16.6886898 23.2631579,16.9526933 L23.2631579,17 L9.57894737,17 L9.57894737,16.9752282 C7.65354389,16.7583584 6.15789474,15.1441085 6.15789474,13.1849351 C6.15789474,11.4928763 7.27351104,10.0580987 8.81808319,9.55860556 C8.81553023,9.4960071 8.81424149,9.43308722 8.81424149,9.36987013 C8.81424149,6.82390916 10.9045034,4.76 13.4829721,4.76 C15.2540327,4.76 16.7947652,5.73371905 17.5860205,7.1685532 Z" id="path-1"></path>
        <mask id="mask-2" maskContentUnits="userSpaceOnUse" maskUnits="objectBoundingBox" x="-1.36842105" y="-1.36842105" width="22.5789474" height="14.9768421">
            <rect x="4.78947368" y="3.39157895" width="22.5789474" height="14.9768421" fill="white"></rect>
            <use xlink:href="#path-1" fill="black"></use>
        </mask>
    </defs>
    <g id="Page-1" stroke="none" stroke-width="1" fill="none" fill-rule="evenodd">
        <g id="public_page_1200" transform="translate(-349.000000, -1625.000000)">
            <g id="4" transform="translate(120.000000, 954.000000)">
                <g id="attachments" transform="translate(30.000000, 646.000000)">
                    <g id="attach_skydrive" transform="translate(159.000000, 25.000000)">
                        <g id="skydrive" transform="translate(40.000000, 0.000000)">
                            <path d="M0,1.00669861 C0,0.450714319 0.452362061,0 0.992786407,0 L32,0 L46,14 L46,56.9983277 C46,57.551536 45.5447218,58 44.9964448,58 L1.00355521,58 C0.449306971,58 0,57.5499601 0,56.9933014 L0,1.00669861 Z" id="Rectangle-169" fill="#E7EEF2"></path>
                            <g id="Oval-250-+-Path-306" transform="translate(11.000000, 23.000000)">
                                <path d="M5.30861805,14.8828875 C5.30861805,14.8828875 0.342105263,15.6053437 0.342105263,11.4676953 C0.342105263,10.163701 0.952649568,8.89793945 3.13858193,8.0728418 C2.87682463,7.27563477 2.47959498,4.56049088 4.46056486,3.27930664 C6.44153475,1.9981224 8.65781409,3.0925808 8.65781409,3.0925808 C8.65781409,3.0925808 10.1388775,0.308125 13.3421053,0.308125 C17.0431229,0.308125 17.9459478,3.09258073 17.9459482,4.89560637" id="Path-306" fill="#2C5DB4"></path>
                                <g id="Oval-250">
                                    <use fill="#2B5DB4" fill-rule="evenodd" xlink:href="#path-1"></use>
                                    <use stroke="#E7EDF2" mask="url(#mask-2)" stroke-width="2.73684211" xlink:href="#path-1"></use>
                                </g>
                            </g>
                            <polygon id="Path-91" fill="#CED7E0" points="32 0 32 14.0498756 46.0001244 14.0498756"></polygon>
                        </g>
                    </g>
                </g>
            </g>
        </g>
    </g>
</svg>