<?xml version="1.0" encoding="UTF-8" standalone="no"?>
<svg width="46px" height="58px" viewBox="0 0 46 58" version="1.1" xmlns="http://www.w3.org/2000/svg" xmlns:xlink="http://www.w3.org/1999/xlink">
    <!-- Generator: sketchtool 39.1 (31720) - http://www.bohemiancoding.com/sketch -->
    <title>827A595E-EE56-477A-87C2-0B017EB68314</title>
    <desc>Created with sketchtool.</desc>
    <defs></defs>
    <g id="Page-1" stroke="none" stroke-width="1" fill="none" fill-rule="evenodd">
        <g id="public_page_1200" transform="translate(-196.000000, -1625.000000)">
            <g id="4" transform="translate(120.000000, 954.000000)">
                <g id="attachments" transform="translate(30.000000, 646.000000)">
                    <g id="attach_db" transform="translate(26.000000, 25.000000)">
                        <g id="db" transform="translate(20.000000, 0.000000)">
                            <path d="M0,1.00669861 C0,0.450714319 0.452362061,0 0.992786407,0 L32,0 L46,14 L46,56.9983277 C46,57.551536 45.5447218,58 44.9964448,58 L1.00355521,58 C0.449306971,58 0,57.5499601 0,56.9933014 L0,1.00669861 Z" id="Rectangle-169" fill="#E7EEF2"></path>
                            <path d="M11,33.8389856 L18.0597366,38.6 L23,34.3422178 L15.8809972,29.8 L11,33.8389856 L11,33.8389856 Z M18.0597366,21 L11,25.7595558 L15.8809972,29.8 L23,25.2592408 L18.0597366,21 L18.0597366,21 Z M35,25.7595558 L27.9402634,21 L23,25.2592408 L30.1190028,29.8 L35,25.7595558 L35,25.7595558 Z M28,38.4999998 L35,33.8389856 L30.1190028,29.8 L23,34.3422178 L28,38.4999998 Z M27.9999998,39.7979734 L22.9992819,35.5918579 L18,39.7979734 L16,38.4486084 L16,40.7783946 L22.9992819,45 L30,40.7783947 L30,38.4486084 L27.9999998,39.7979734 Z" id="Shape-Copy" fill="#3686E3"></path>
                            <polygon id="Path-91" fill="#CED7E0" points="32 0 32 14.0498756 46.0001244 14.0498756"></polygon>
                        </g>
                    </g>
                </g>
            </g>
        </g>
    </g>
</svg>