<?xml version="1.0" encoding="iso-8859-1"?>
<!-- Generator: Adobe Illustrator 18.0.0, SVG Export Plug-In . SVG Version: 6.00 Build 0)  -->
<!DOCTYPE svg PUBLIC "-//W3C//DTD SVG 1.1//EN" "http://www.w3.org/Graphics/SVG/1.1/DTD/svg11.dtd">
<svg version="1.1" id="Capa_1" xmlns="http://www.w3.org/2000/svg" xmlns:xlink="http://www.w3.org/1999/xlink" x="0px" y="0px"
	 viewBox="0 0 320 320" xml:space="preserve" >
<path fill="#00aeff" transform="translate(300, 20) scale(-1, 1)" d="M282.062,200.297l-76.29-76.3c-4.398-4.398-10.396-6.825-16.89-6.825c-7.46,0-14.972,3.239-20.618,8.883l-11.495,11.49
	l-5.421-5.416l11.493-11.494c4.887-4.889,7.977-11.164,8.711-17.668c0.843-7.531-1.578-14.772-6.655-19.842L88.598,6.828
	C84.198,2.425,78.2,0,71.714,0c-7.463,0-14.979,3.236-20.621,8.886L8.881,51.095C-2.025,62.005-2.951,78.825,6.83,88.607
	l76.282,76.285c4.401,4.399,10.397,6.827,16.895,6.827c0.001,0,0,0,0.001,0c7.462,0,14.978-3.229,20.622-8.875l11.493-11.494
	l5.423,5.424l-11.493,11.493c-4.888,4.879-7.979,11.156-8.713,17.657c-0.85,7.544,1.579,14.772,6.659,19.854l76.291,76.287
	c4.398,4.398,10.398,6.824,16.892,6.825c0.001,0,0,0,0.001,0c7.458,0,14.972-3.237,20.618-8.873l42.209-42.217
	C290.92,226.898,291.837,210.066,282.062,200.297z M101.406,143.623c-0.216,0.214-0.416,0.374-0.606,0.508L27.598,70.926
	c0.125-0.188,0.293-0.395,0.509-0.612l42.212-42.208c0.204-0.217,0.418-0.377,0.609-0.514l73.199,73.204
	c-0.134,0.191-0.295,0.403-0.509,0.614l-11.495,11.494L106.96,87.742l-19.224,19.223l25.164,25.164L101.406,143.623z
	 M260.788,218.577l-42.209,42.208c-0.214,0.216-0.421,0.388-0.616,0.514l-73.197-73.203c0.133-0.192,0.292-0.391,0.509-0.605
	l11.494-11.494l25.163,25.165l19.224-19.225l-25.163-25.162l11.493-11.495c0.212-0.216,0.422-0.383,0.612-0.511l73.2,73.199
	C261.163,218.163,261.005,218.372,260.788,218.577z"/>
<g>
</g>
<g>
</g>
<g>
</g>
<g>
</g>
<g>
</g>
<g>
</g>
<g>
</g>
<g>
</g>
<g>
</g>
<g>
</g>
<g>
</g>
<g>
</g>
<g>
</g>
<g>
</g>
<g>
</g>
</svg>
