<?xml version="1.0" encoding="UTF-8" standalone="no"?>
<svg width="16px" height="14px" viewBox="0 0 16 14" version="1.1" xmlns="http://www.w3.org/2000/svg" xmlns:xlink="http://www.w3.org/1999/xlink">
    <!-- Generator: sketchtool 39.1 (31720) - http://www.bohemiancoding.com/sketch -->
    <title>B42178D2-68E6-4E71-8F80-11202101E184</title>
    <desc>Created with sketchtool.</desc>
    <defs></defs>
    <g id="Page-1" stroke="none" stroke-width="1" fill="none" fill-rule="evenodd">
        <g id="public_page_1200" transform="translate(-150.000000, -528.000000)" fill="#ed1e23">
            <g id="2" transform="translate(120.000000, 446.000000)">
                <g id="lists" transform="translate(30.000000, 30.000000)">
                    <g id="2" transform="translate(0.000000, 49.000000)">
                        <path d="M2,7 C3.1045695,7 4,6.1045695 4,5 C4,3.8954305 3.1045695,3 2,3 C0.8954305,3 0,3.8954305 0,5 C0,6.1045695 0.8954305,7 2,7 Z M2,12 C3.1045695,12 4,11.1045695 4,10 C4,8.8954305 3.1045695,8 2,8 C0.8954305,8 0,8.8954305 0,10 C0,11.1045695 0.8954305,12 2,12 Z M2,17 C3.1045695,17 4,16.1045695 4,15 C4,13.8954305 3.1045695,13 2,13 C0.8954305,13 0,13.8954305 0,15 C0,16.1045695 0.8954305,17 2,17 Z M6,4 L16,4 L16,6 L6,6 L6,4 Z M6,9 L16,9 L16,11 L6,11 L6,9 Z M6,14 L16,14 L16,16 L6,16 L6,14 Z" id="list"></path>
                    </g>
                </g>
            </g>
        </g>
    </g>
</svg>
